<?xml version="1.0" encoding="utf-8"?>
<svg width="414px" height="807px" viewBox="0 0 414 807" version="1.1" xmlns:xlink="http://www.w3.org/1999/xlink" xmlns="http://www.w3.org/2000/svg">
  <defs>
    <filter filterUnits="userSpaceOnUse" color-interpolation-filters="sRGB" id="filter_1">
      <feFlood flood-opacity="0" result="BackgroundImageFix" />
      <feColorMatrix in="SourceAlpha" type="matrix" values="0 0 0 0 0 0 0 0 0 0 0 0 0 0 0 0 0 0 127 0" />
      <feOffset dx="0" dy="8" />
      <feGaussianBlur stdDeviation="8" />
      <feColorMatrix type="matrix" values="0 0 0 0 0.28235295 0 0 0 0 0.32156864 0 0 0 0 0.76862746 0 0 0 0.49803922 0" />
      <feBlend mode="normal" in2="BackgroundImageFix" result="effect0_dropShadow" />
      <feBlend mode="normal" in="SourceGraphic" in2="effect0_dropShadow" result="shape" />
    </filter>
  </defs>
  <g id="Group-3">
    <path d="M0 0L414 0L414 807L0 807L0 0Z" id="Rectangle" fill="#FFFFFF" fill-rule="evenodd" stroke="none" />
    <path d="M0 0C83 -7.25609e-06 83 -7.25609e-06 83 -7.25609e-06C88.6223 0.0163933 94.2448 0.00351439 99.8669 0.0491943C102.321 0.0691316 104.774 0.122843 107.227 0.196838C109.127 0.254151 111.026 0.336316 112.924 0.443092C114.53 0.533454 116.134 0.648356 117.737 0.788193C119.15 0.911525 120.561 1.05942 121.969 1.23249C123.242 1.38889 124.511 1.56997 125.777 1.77645C133.439 3.02691 141.114 5.32348 147.531 9.82293C148.877 10.7663 150.155 11.7978 151.357 12.9182C153.153 14.5924 154.767 16.4578 156.177 18.4681C158.201 21.3558 159.798 24.5269 161.037 27.8249C163.491 34.3594 164.607 41.3358 165.212 48.2624C165.73 54.2 165.902 60.1737 165.951 66.1312C165.996 71.754 165.984 77.3771 166 83L166 184L0 184L0 0Z" transform="translate(0 623)" id="Rectangle-2" fill="#FFFFFF" fill-rule="evenodd" stroke="none" filter="url(#filter_1)" />
    <path d="M0 0L178 0L178 175C87.5 175 87.5 175 87.5 175C81.0186 174.984 74.537 174.997 68.0558 174.951C65.4143 174.932 62.773 174.878 60.1326 174.804C58.1194 174.748 56.1068 174.666 54.0957 174.559C52.411 174.47 50.7273 174.355 49.046 174.215C47.5743 174.093 46.1045 173.946 44.6379 173.773C43.3206 173.618 42.006 173.437 40.6957 173.231C32.8963 172.004 25.0489 169.749 18.5024 165.192C17.8209 164.717 17.1553 164.219 16.5087 163.698C15.2316 162.669 14.0319 161.553 12.9144 160.352C11.2114 158.523 9.71368 156.507 8.42892 154.364C6.52281 151.184 5.08482 147.74 3.99896 144.2C3.0065 140.965 2.29481 137.646 1.7689 134.305C1.07072 129.869 0.679036 125.388 0.44104 120.905C0.205389 116.468 0.0803148 111.324 0.0489731 106.946C0.00256874 100.464 0.0163218 93.9821 -3.82475e-06 87.5L0 0Z" transform="translate(236 0)" id="Rectangle-2-Copy" fill="#FFFFFF" fill-rule="evenodd" stroke="none" filter="url(#filter_1)" />
    <path d="M47.191 0C48.809 -4.12557e-06 48.809 -4.12557e-06 48.809 -4.12557e-06C52.8732 0.00791656 56.9374 0.000457458 61.0015 0.0237579C63.3797 0.0373927 66.2298 0.0975576 68.6497 0.214054C72.7111 0.409573 76.8313 0.789839 80.7472 1.94506C82.9262 2.58789 85.0407 3.49671 86.9176 4.78778C87.9228 5.47924 88.8534 6.27774 89.6837 7.17194C90.2399 7.77092 90.7488 8.40883 91.2121 9.08219C93.4909 12.3949 94.5585 16.3824 95.1407 20.3146C95.2414 20.9948 95.3291 21.6769 95.4041 22.3604C95.4885 23.1291 95.5601 23.8993 95.6191 24.6704C95.6873 25.5626 95.7429 26.4559 95.7859 27.3497C95.8382 28.435 95.8779 29.521 95.9049 30.6072C95.9413 32.0703 95.9678 33.5338 95.9762 34.9973C95.9995 39.0618 95.9921 43.1264 96 47.191C96 47.191 96 47.191 96 47.191C95.9921 51.2552 95.9995 55.3194 95.9762 59.3835C95.9678 60.8472 95.9413 62.3108 95.9049 63.774C95.8779 64.8603 95.8382 65.9463 95.7859 67.0317C95.7429 67.9255 95.6874 68.8188 95.6191 69.7111C95.5601 70.4822 95.4886 71.2525 95.4042 72.0212C95.3291 72.7046 95.2415 73.3868 95.1408 74.0669C94.5585 77.9993 93.4911 81.9868 91.2122 85.2996C90.749 85.9729 90.2401 86.6109 89.6839 87.2099C88.8536 88.1041 87.923 88.9026 86.9178 89.5941C85.041 90.8852 82.9265 91.794 80.7475 92.4368C76.8318 93.5921 72.7116 93.9724 68.6503 94.1679C66.2312 94.2844 63.3798 94.3446 61.0027 94.3582C56.9382 94.3816 52.8736 94.3741 48.809 94.382C47.191 94.382 47.191 94.382 47.191 94.382C43.1268 94.3741 39.0626 94.3816 34.9985 94.3583C32.6206 94.3446 29.77 94.2845 27.3503 94.168C23.2889 93.9725 19.1687 93.5922 15.2528 92.437C13.0738 91.7941 10.9593 90.8853 9.08241 89.5942C8.07724 88.9028 7.14656 88.1043 6.31625 87.2101C5.76023 86.6113 5.25102 85.973 4.78794 85.2998C2.50908 81.9871 1.44154 77.9996 0.859299 74.0674C0.758596 73.3873 0.670939 72.7051 0.595882 72.0217C0.511458 71.253 0.439933 70.4827 0.380928 69.7116C0.312653 68.8194 0.257118 67.9261 0.214085 67.0323C0.16183 65.947 0.122121 64.861 0.095089 63.7748C0.0586783 62.3116 0.0321575 60.8482 0.0237656 59.3847C0.000459842 55.3202 0.00792048 51.2556 -2.06278e-06 47.191C-2.06278e-06 47.191 -2.06278e-06 47.191 -2.06278e-06 47.191C0.00791794 43.1268 0.000456985 39.0626 0.0237579 34.9984C0.0321495 33.5348 0.0586666 32.0712 0.0950737 30.608C0.122102 29.5217 0.161805 28.4357 0.214054 27.3503C0.257083 26.4565 0.312614 25.5632 0.380886 24.6709C0.439889 23.8998 0.511414 23.1295 0.595837 22.3608C0.67089 21.6773 0.758538 20.9952 0.859238 20.315C1.44146 16.3827 2.50895 12.3952 4.78778 9.08241C5.25095 8.4091 5.75997 7.77104 6.31608 7.17212C7.14638 6.27792 8.07705 5.47939 9.0822 4.78793C10.959 3.49683 13.0735 2.588 15.2525 1.94515C19.1683 0.789916 23.2884 0.409617 27.3497 0.214081C29.7689 0.0976039 32.62 0.0373966 34.9973 0.0237656C39.0618 0.00046031 43.1264 0.00792185 47.191 0Z" transform="translate(29 50)" id="Rectangle-2-Copy-2" fill="#505BDA" fill-rule="evenodd" stroke="none" filter="url(#filter_1)" />
    <path d="M35.3933 0C36.6067 -3.09418e-06 36.6067 -3.09418e-06 36.6067 -3.09418e-06C39.0131 0.00697502 41.4196 0.00148051 43.8259 0.0209312C44.8733 0.0293971 45.9205 0.0522552 46.9674 0.083744C47.7778 0.108117 48.5879 0.143072 49.3973 0.188507C50.082 0.226941 50.7662 0.275826 51.4494 0.335327C52.0518 0.387789 52.6533 0.450707 53.2535 0.524349C57.0634 0.991846 60.9541 1.94615 64.1407 4.17959C64.7134 4.58101 65.2573 5.02001 65.769 5.49688C66.5335 6.20942 67.2205 7.00342 67.8203 7.85913C68.682 9.08858 69.3614 10.4387 69.8883 11.8428C70.933 14.6269 71.4076 17.5993 71.6646 20.5502C71.8853 23.0833 71.9585 25.6317 71.9791 28.1733C71.9985 30.5799 71.993 32.9866 72 35.3933C72 35.3933 72 35.3933 72 35.3933C71.993 37.7997 71.9985 40.2061 71.9791 42.6125C71.9706 43.6598 71.9477 44.7071 71.9163 45.754C71.8919 46.5643 71.8569 47.3744 71.8115 48.1838C71.7731 48.8685 71.7242 49.5527 71.6647 50.2359C71.6122 50.8383 71.5493 51.4398 71.4756 52.04C71.0081 55.8499 70.0538 59.7406 67.8204 62.9272C67.4189 63.5001 66.9801 64.0437 66.5031 64.5555C65.7906 65.32 64.9966 66.007 64.1409 66.6068C62.9114 67.4685 61.5613 68.1479 60.1572 68.6748C57.373 69.7196 54.4007 70.1941 51.4498 70.4512C48.9167 70.6718 46.3683 70.745 43.8268 70.7656C41.4202 70.785 39.0134 70.7795 36.6067 70.7865C35.3933 70.7865 35.3933 70.7865 35.3933 70.7865C32.9869 70.7795 30.5804 70.785 28.174 70.7656C25.6324 70.745 23.0838 70.6718 20.5506 70.4512C17.5997 70.1942 14.6273 69.7196 11.8431 68.6749C10.439 68.148 9.08877 67.4686 7.85931 66.6069C7.0036 66.0072 6.20959 65.3202 5.49703 64.5556C5.0202 64.044 4.58111 63.5001 4.17972 62.9274C1.94627 59.7409 0.991918 55.8502 0.524395 52.0404C0.450749 51.4402 0.387826 50.8387 0.335361 50.2363C0.275857 49.5532 0.226971 48.869 0.188534 48.1843C0.143095 47.3749 0.108136 46.5648 0.0837593 45.7545C0.0522674 44.7077 0.029405 43.6605 0.0209389 42.6132C0.00148388 40.2066 0.00697859 37.7999 -1.54709e-06 35.3933C-1.54709e-06 35.3933 -1.54709e-06 35.3933 -1.54709e-06 35.3933C0.00697605 32.9868 0.00148082 30.5804 0.0209312 28.174C0.0414754 25.6324 0.114705 23.0838 0.335327 20.5506C0.59233 17.5997 1.06689 14.6273 2.11162 11.8431C2.63851 10.4389 3.31787 9.08878 4.17959 7.85932C4.77935 7.0036 5.46633 6.20958 6.23088 5.49702C6.7426 5.0201 7.28635 4.58119 7.85914 4.17971C11.0457 1.94626 14.9363 0.991914 18.7462 0.524391C19.3463 0.450746 19.9479 0.387822 20.5502 0.335358C21.2334 0.275854 21.9176 0.226971 22.6023 0.188534C23.4116 0.143096 24.2217 0.108136 25.032 0.0837593C26.0788 0.0522671 27.126 0.0294048 28.1733 0.0209389C30.5799 0.00148421 32.9866 0.00697962 35.3933 0Z" transform="translate(325 554.61804)" id="Rectangle-2-Copy-3" fill="#505BDA" fill-rule="evenodd" stroke="none" filter="url(#filter_1)" />
  </g>
</svg>