<?xml version="1.0" encoding="utf-8"?>
<svg width="414px" height="807px" viewBox="0 0 414 807" version="1.1" xmlns:xlink="http://www.w3.org/1999/xlink" xmlns="http://www.w3.org/2000/svg">
  <defs>
    <filter filterUnits="userSpaceOnUse" color-interpolation-filters="sRGB" id="filter_1">
      <feFlood flood-opacity="0" result="BackgroundImageFix" />
      <feColorMatrix in="SourceAlpha" type="matrix" values="0 0 0 0 0 0 0 0 0 0 0 0 0 0 0 0 0 0 127 0" />
      <feOffset dx="0" dy="8" />
      <feGaussianBlur stdDeviation="8" />
      <feColorMatrix type="matrix" values="0 0 0 0 0.28235295 0 0 0 0 0.32156864 0 0 0 0 0.76862746 0 0 0 0.49803922 0" />
      <feBlend mode="normal" in2="BackgroundImageFix" result="effect0_dropShadow" />
      <feBlend mode="normal" in="SourceGraphic" in2="effect0_dropShadow" result="shape" />
    </filter>
  </defs>
  <g id="Group-3">
    <path d="M0 0L414 0L414 807L0 807L0 0Z" id="Rectangle" fill="#18181A" fill-rule="evenodd" stroke="none" />
    <path d="M0 623C83 623 83 623 83 623C88.6223 623.016 94.2448 623.004 99.8669 623.049C102.321 623.069 104.774 623.123 107.227 623.197C109.127 623.254 111.026 623.336 112.924 623.443C114.53 623.533 116.134 623.648 117.737 623.788C119.15 623.911 120.561 624.059 121.969 624.232C123.242 624.389 124.511 624.57 125.777 624.776C133.439 626.027 141.114 628.323 147.531 632.823C148.877 633.766 150.155 634.798 151.357 635.918C153.153 637.592 154.767 639.458 156.177 641.468C158.201 644.356 159.798 647.527 161.037 650.825C163.491 657.359 164.607 664.336 165.212 671.262C165.73 677.2 165.902 683.174 165.951 689.131C165.996 694.754 165.984 700.377 166 706L166 807L0 807L0 623Z" id="Rectangle-2" fill="#18181A" fill-rule="evenodd" stroke="none" filter="url(#filter_1)" />
    <path d="M236 0L414 0L414 175C323.5 175 323.5 175 323.5 175C317.019 174.984 310.537 174.997 304.056 174.951C301.414 174.932 298.773 174.878 296.133 174.804C294.119 174.748 292.107 174.666 290.096 174.559C288.411 174.47 286.727 174.355 285.046 174.215C283.574 174.093 282.104 173.946 280.638 173.773C279.321 173.618 278.006 173.437 276.696 173.231C268.896 172.004 261.049 169.749 254.502 165.192C253.821 164.717 253.155 164.219 252.509 163.698C251.232 162.669 250.032 161.553 248.914 160.352C247.211 158.523 245.714 156.507 244.429 154.364C242.523 151.184 241.085 147.74 239.999 144.2C239.007 140.965 238.295 137.646 237.769 134.305C237.071 129.869 236.679 125.388 236.441 120.905C236.205 116.468 236.08 111.324 236.049 106.946C236.003 100.464 236.016 93.9821 236 87.5L236 0Z" id="Rectangle-2-Copy" fill="#18181A" fill-rule="evenodd" stroke="none" filter="url(#filter_1)" />
    <path d="M76.191 50C77.809 50 77.809 50 77.809 50C81.8732 50.0079 85.9374 50.0005 90.0015 50.0238C92.3797 50.0374 95.2298 50.0976 97.6497 50.2141C101.711 50.4096 105.831 50.7898 109.747 51.9451C111.926 52.5879 114.041 53.4967 115.918 54.7878C116.923 55.4792 117.853 56.2777 118.684 57.1719C119.24 57.7709 119.749 58.4088 120.212 59.0822C122.491 62.3949 123.558 66.3824 124.141 70.3146C124.241 70.9948 124.329 71.6769 124.404 72.3604C124.489 73.1291 124.56 73.8993 124.619 74.6704C124.687 75.5626 124.743 76.4559 124.786 77.3497C124.838 78.435 124.878 79.521 124.905 80.6072C124.941 82.0703 124.968 83.5338 124.976 84.9973C125 89.0618 124.992 93.1264 125 97.191C125 97.191 125 97.191 125 97.191C124.992 101.255 125 105.319 124.976 109.384C124.968 110.847 124.941 112.311 124.905 113.774C124.878 114.86 124.838 115.946 124.786 117.032C124.743 117.926 124.687 118.819 124.619 119.711C124.56 120.482 124.489 121.252 124.404 122.021C124.329 122.705 124.241 123.387 124.141 124.067C123.559 127.999 122.491 131.987 120.212 135.3C119.749 135.973 119.24 136.611 118.684 137.21C117.854 138.104 116.923 138.903 115.918 139.594C114.041 140.885 111.926 141.794 109.748 142.437C105.832 143.592 101.712 143.972 97.6503 144.168C95.2312 144.284 92.3798 144.345 90.0027 144.358C85.9382 144.382 81.8736 144.374 77.809 144.382C76.191 144.382 76.191 144.382 76.191 144.382C72.1268 144.374 68.0626 144.382 63.9985 144.358C61.6206 144.345 58.77 144.284 56.3503 144.168C52.2889 143.972 48.1687 143.592 44.2528 142.437C42.0738 141.794 39.9593 140.885 38.0824 139.594C37.0772 138.903 36.1466 138.104 35.3162 137.21C34.7602 136.611 34.251 135.973 33.7879 135.3C31.5091 131.987 30.4415 128 29.8593 124.067C29.7586 123.387 29.6709 122.705 29.5959 122.022C29.5115 121.253 29.4399 120.483 29.3809 119.712C29.3127 118.819 29.2571 117.926 29.2141 117.032C29.1618 115.947 29.1221 114.861 29.0951 113.775C29.0587 112.312 29.0322 110.848 29.0238 109.385C29.0005 105.32 29.0079 101.256 29 97.191C29 97.191 29 97.191 29 97.191C29.0079 93.1268 29.0005 89.0626 29.0238 84.9984C29.0322 83.5348 29.0587 82.0712 29.0951 80.608C29.1221 79.5217 29.1618 78.4357 29.2141 77.3503C29.2571 76.4565 29.3126 75.5632 29.3809 74.6709C29.4399 73.8998 29.5114 73.1295 29.5958 72.3608C29.6709 71.6773 29.7585 70.9952 29.8592 70.315C30.4415 66.3827 31.509 62.3952 33.7878 59.0824C34.2509 58.4091 34.76 57.771 35.3161 57.1721C36.1464 56.2779 37.077 55.4794 38.0822 54.7879C39.959 53.4968 42.0735 52.588 44.2525 51.9452C48.1683 50.7899 52.2884 50.4096 56.3497 50.2141C58.7689 50.0976 61.62 50.0374 63.9973 50.0238C68.0618 50.0005 72.1264 50.0079 76.191 50Z" id="Rectangle-2-Copy-2" fill="#505BDA" fill-rule="evenodd" stroke="none" filter="url(#filter_1)" />
    <path d="M360.393 554.618C361.607 554.618 361.607 554.618 361.607 554.618C364.013 554.625 366.42 554.62 368.826 554.639C369.873 554.647 370.921 554.67 371.967 554.702C372.778 554.726 373.588 554.761 374.397 554.807C375.082 554.845 375.766 554.894 376.449 554.953C377.052 555.006 377.653 555.069 378.253 555.142C382.063 555.61 385.954 556.564 389.141 558.798C389.713 559.199 390.257 559.638 390.769 560.115C391.534 560.827 392.221 561.621 392.82 562.477C393.682 563.707 394.361 565.057 394.888 566.461C395.933 569.245 396.408 572.217 396.665 575.168C396.885 577.701 396.959 580.25 396.979 582.791C396.999 585.198 396.993 587.605 397 590.011C397 590.011 397 590.011 397 590.011C396.993 592.418 396.999 594.824 396.979 597.23C396.971 598.278 396.948 599.325 396.916 600.372C396.892 601.182 396.857 601.992 396.811 602.802C396.773 603.487 396.724 604.171 396.665 604.854C396.612 605.456 396.549 606.058 396.476 606.658C396.008 610.468 395.054 614.359 392.82 617.545C392.419 618.118 391.98 618.662 391.503 619.174C390.791 619.938 389.997 620.625 389.141 621.225C387.911 622.087 386.561 622.766 385.157 623.293C382.373 624.338 379.401 624.812 376.45 625.069C373.917 625.29 371.368 625.363 368.827 625.384C366.42 625.403 364.013 625.398 361.607 625.405C360.393 625.405 360.393 625.405 360.393 625.405C357.987 625.398 355.58 625.403 353.174 625.384C350.632 625.363 348.084 625.29 345.551 625.069C342.6 624.812 339.627 624.338 336.843 623.293C335.439 622.766 334.089 622.087 332.859 621.225C332.004 620.625 331.21 619.938 330.497 619.174C330.02 618.662 329.581 618.118 329.18 617.545C326.946 614.359 325.992 610.468 325.524 606.658C325.451 606.058 325.388 605.457 325.335 604.854C325.276 604.171 325.227 603.487 325.189 602.802C325.143 601.993 325.108 601.183 325.084 600.373C325.052 599.326 325.029 598.279 325.021 597.231C325.001 594.825 325.007 592.418 325 590.011C325 590.011 325 590.011 325 590.011C325.007 587.605 325.001 585.198 325.021 582.792C325.041 580.25 325.115 577.702 325.335 575.169C325.592 572.218 326.067 569.245 327.112 566.461C327.639 565.057 328.318 563.707 329.18 562.477C329.779 561.622 330.466 560.828 331.231 560.115C331.743 559.638 332.286 559.199 332.859 558.798C336.046 556.564 339.936 555.61 343.746 555.142C344.346 555.069 344.948 555.006 345.55 554.953C346.233 554.894 346.918 554.845 347.602 554.807C348.412 554.761 349.222 554.726 350.032 554.702C351.079 554.67 352.126 554.647 353.173 554.639C355.58 554.62 357.987 554.625 360.393 554.618Z" id="Rectangle-2-Copy-3" fill="#505BDA" fill-rule="evenodd" stroke="none" filter="url(#filter_1)" />
  </g>
</svg>